<mxfile host="Electron" modified="2023-12-24T12:16:07.552Z" agent="Mozilla/5.0 (Macintosh; Intel Mac OS X 10_15_7) AppleWebKit/537.36 (KHTML, like Gecko) draw.io/22.1.11 Chrome/114.0.5735.289 Electron/25.9.8 Safari/537.36" etag="oFe_HLZ03EJ9I7Q0NbCx" version="22.1.11" type="device">
  <diagram name="第 1 页" id="3JIc8dy5aZu-XoGQvfik">
    <mxGraphModel dx="1194" dy="760" grid="1" gridSize="10" guides="1" tooltips="1" connect="1" arrows="1" fold="1" page="1" pageScale="1" pageWidth="827" pageHeight="1169" math="0" shadow="0">
      <root>
        <mxCell id="0" />
        <mxCell id="1" parent="0" />
        <mxCell id="5Hhgkj8GtPOUE0QWpRWp-1" value="Attribute" style="ellipse;whiteSpace=wrap;html=1;align=center;dashed=1;" parent="1" vertex="1">
          <mxGeometry x="360" y="320" width="100" height="40" as="geometry" />
        </mxCell>
        <mxCell id="5Hhgkj8GtPOUE0QWpRWp-3" style="edgeStyle=orthogonalEdgeStyle;rounded=0;orthogonalLoop=1;jettySize=auto;html=1;entryX=0.5;entryY=0;entryDx=0;entryDy=0;" parent="1" source="5Hhgkj8GtPOUE0QWpRWp-2" target="5Hhgkj8GtPOUE0QWpRWp-1" edge="1">
          <mxGeometry relative="1" as="geometry" />
        </mxCell>
        <mxCell id="5Hhgkj8GtPOUE0QWpRWp-2" value="Associative&#xa;Entity" style="shape=associativeEntity;whiteSpace=wrap;html=1;align=center;" parent="1" vertex="1">
          <mxGeometry x="130" y="100" width="140" height="60" as="geometry" />
        </mxCell>
        <mxCell id="-tK4OKOZz4bPGVc_LX2R-1" value="" style="shape=process;whiteSpace=wrap;html=1;backgroundOutline=1;" vertex="1" parent="1">
          <mxGeometry x="150" y="220" width="120" height="60" as="geometry" />
        </mxCell>
        <mxCell id="-tK4OKOZz4bPGVc_LX2R-2" value="" style="rhombus;whiteSpace=wrap;html=1;" vertex="1" parent="1">
          <mxGeometry x="180" y="350" width="80" height="80" as="geometry" />
        </mxCell>
        <mxCell id="-tK4OKOZz4bPGVc_LX2R-3" style="edgeStyle=orthogonalEdgeStyle;rounded=0;orthogonalLoop=1;jettySize=auto;html=1;exitX=0.5;exitY=1;exitDx=0;exitDy=0;entryX=0.45;entryY=0;entryDx=0;entryDy=0;entryPerimeter=0;" edge="1" parent="1" source="5Hhgkj8GtPOUE0QWpRWp-2" target="-tK4OKOZz4bPGVc_LX2R-1">
          <mxGeometry relative="1" as="geometry" />
        </mxCell>
        <mxCell id="-tK4OKOZz4bPGVc_LX2R-4" style="edgeStyle=orthogonalEdgeStyle;rounded=0;orthogonalLoop=1;jettySize=auto;html=1;entryX=0.538;entryY=0.088;entryDx=0;entryDy=0;entryPerimeter=0;" edge="1" parent="1" source="-tK4OKOZz4bPGVc_LX2R-1" target="-tK4OKOZz4bPGVc_LX2R-2">
          <mxGeometry relative="1" as="geometry" />
        </mxCell>
        <mxCell id="-tK4OKOZz4bPGVc_LX2R-5" value="Actor" style="shape=umlActor;verticalLabelPosition=bottom;verticalAlign=top;html=1;outlineConnect=0;" vertex="1" parent="1">
          <mxGeometry x="350" y="540" width="30" height="60" as="geometry" />
        </mxCell>
        <mxCell id="-tK4OKOZz4bPGVc_LX2R-6" style="edgeStyle=orthogonalEdgeStyle;rounded=0;orthogonalLoop=1;jettySize=auto;html=1;exitX=0.5;exitY=1;exitDx=0;exitDy=0;entryX=0.5;entryY=0;entryDx=0;entryDy=0;entryPerimeter=0;" edge="1" parent="1" source="-tK4OKOZz4bPGVc_LX2R-2" target="-tK4OKOZz4bPGVc_LX2R-5">
          <mxGeometry relative="1" as="geometry" />
        </mxCell>
        <mxCell id="-tK4OKOZz4bPGVc_LX2R-7" value="Module" style="shape=module;align=left;spacingLeft=20;align=center;verticalAlign=top;whiteSpace=wrap;html=1;" vertex="1" parent="1">
          <mxGeometry x="360" y="370" width="100" height="50" as="geometry" />
        </mxCell>
        <mxCell id="-tK4OKOZz4bPGVc_LX2R-8" value="" style="ellipse;html=1;shape=endState;fillColor=#000000;strokeColor=#ff0000;" vertex="1" parent="1">
          <mxGeometry x="480" y="480" width="30" height="50" as="geometry" />
        </mxCell>
        <mxCell id="-tK4OKOZz4bPGVc_LX2R-9" value="Boundary Object" style="shape=umlBoundary;whiteSpace=wrap;html=1;" vertex="1" parent="1">
          <mxGeometry x="570" y="370" width="100" height="80" as="geometry" />
        </mxCell>
        <mxCell id="-tK4OKOZz4bPGVc_LX2R-10" value="&lt;p style=&quot;margin:0px;margin-top:4px;text-align:center;&quot;&gt;&lt;i&gt;&amp;lt;&amp;lt;Interface&amp;gt;&amp;gt;&lt;/i&gt;&lt;br/&gt;&lt;b&gt;Interface&lt;/b&gt;&lt;/p&gt;&lt;hr size=&quot;1&quot;/&gt;&lt;p style=&quot;margin:0px;margin-left:4px;&quot;&gt;+ field1: Type&lt;br/&gt;+ field2: Type&lt;/p&gt;&lt;hr size=&quot;1&quot;/&gt;&lt;p style=&quot;margin:0px;margin-left:4px;&quot;&gt;+ method1(Type): Type&lt;br/&gt;+ method2(Type, Type): Type&lt;/p&gt;" style="verticalAlign=top;align=left;overflow=fill;fontSize=12;fontFamily=Helvetica;html=1;whiteSpace=wrap;" vertex="1" parent="1">
          <mxGeometry x="500" y="80" width="190" height="140" as="geometry" />
        </mxCell>
        <mxCell id="-tK4OKOZz4bPGVc_LX2R-13" value="" style="edgeStyle=orthogonalEdgeStyle;rounded=0;orthogonalLoop=1;jettySize=auto;html=1;" edge="1" parent="1" source="-tK4OKOZz4bPGVc_LX2R-11" target="-tK4OKOZz4bPGVc_LX2R-12">
          <mxGeometry relative="1" as="geometry" />
        </mxCell>
        <mxCell id="-tK4OKOZz4bPGVc_LX2R-11" value="awd" style="text;html=1;align=center;verticalAlign=middle;resizable=0;points=[];autosize=1;strokeColor=none;fillColor=none;" vertex="1" parent="1">
          <mxGeometry x="600" y="120" width="50" height="30" as="geometry" />
        </mxCell>
        <mxCell id="-tK4OKOZz4bPGVc_LX2R-12" value="awdawd" style="whiteSpace=wrap;html=1;" vertex="1" parent="1">
          <mxGeometry x="670" y="260" width="120" height="60" as="geometry" />
        </mxCell>
      </root>
    </mxGraphModel>
  </diagram>
</mxfile>
